# xmcd
# 
# Track frame offsets:
#     150
#     14547
#     35682
#     49651
#     75484
#     92509
#     102477
#     112821
#     137580
#     153263
# 
# Disc length: 2204
# 
# Revision: 3
# Processed by: cddbd v1.5.2PL0 Copyright (c) Steve Scherf et al.
# Submitted via: fre:ac v1.0.27
# 
DISCID=70089a0a
DTITLE=Andy Friedman - Taken Man
DYEAR=2006
DGENRE=Country-influenced Rock
TTITLE0=I Don't Want To Die Like Andy Kaufman
TTITLE1=Self-portrait In White-knuckle Death Grip
TTITLE2=Searchers (Brooklyn Boogie)
TTITLE3=Probably Shouldn't Call
TTITLE4=Cheat With The Highway
TTITLE5=Confusion
TTITLE6=David Berman
TTITLE7=Guys Like Me Don't Get Grants
TTITLE8=Taken Man
TTITLE9=One Thing I Want
EXTD=YEAR: 2006
EXTT0=
EXTT1=
EXTT2=
EXTT3=
EXTT4=
EXTT5=
EXTT6=
EXTT7=
EXTT8=
EXTT9=
PLAYORDER=
